<?xml version="1.0" encoding="utf-8"?>
<!-- Generator: Adobe Illustrator 16.0.0, SVG Export Plug-In . SVG Version: 6.00 Build 0)  -->
<!DOCTYPE svg PUBLIC "-//W3C//DTD SVG 1.1//EN" "http://www.w3.org/Graphics/SVG/1.1/DTD/svg11.dtd">
<svg version="1.1" id="Layer_1" xmlns="http://www.w3.org/2000/svg" xmlns:xlink="http://www.w3.org/1999/xlink" x="0px" y="0px"
	 width="512px" height="512px" viewBox="0 0 512 512" enable-background="new 0 0 512 512" xml:space="preserve">
<rect fill="#FFFFFF" width="512" height="512"/>
<path d="M327,358.41V223h-31v135.717c0,21.476,0.211,57.441-16.646,74.424c-7.2,7.259-17.463,10.799-31.124,10.799
	c-13.167,0-23-3.509-30.199-10.738C200.433,415.42,201,378.131,201,355.857v-6.431v-71.775c0-26.397,0.579-70.608-25.757-97.158
	c-13.23-13.353-31.123-20.121-53.151-20.121c-22.182,0-40.285,6.768-53.513,20.121C42.489,206.797,43,250.977,43,277.405V413h32
	V277.098c0-21.475-0.66-57.44,16.199-74.422c7.199-7.261,17.237-10.799,30.897-10.799c13.505,0,23.39,3.538,30.589,10.799
	C169.73,219.904,169,255.869,169,277.374v72.053v6.153c0,27.165-0.527,72.669,26.3,99.803c13.229,13.321,30.995,20.06,52.685,20.06
	c22.182,0,40.246-6.769,53.476-20.12C327.549,429.017,327,384.838,327,358.41z"/>
<polygon fill="#60D9EF" points="379.305,82.843 369.676,52.877 327,66.752 327,34 296,34 296,66.538 253.631,52.877 243.738,82.843 
	286.046,96.595 259.823,132.652 285.274,151.173 311.446,115.116 337.654,151.173 363.126,132.652 336.911,96.595 "/>
<g>
	<path d="M420.962,226.334c-26.06,0-47.257-21.198-47.257-47.256c0-26.028,21.197-47.226,47.257-47.226
		c26.059,0,47.256,21.198,47.256,47.226C468.218,205.136,447.021,226.334,420.962,226.334z M420.962,163.357
		c-8.678,0-15.753,7.045-15.753,15.721c0,8.676,7.075,15.752,15.753,15.752c8.677,0,15.752-7.076,15.752-15.752
		C436.714,170.402,429.639,163.357,420.962,163.357z"/>
</g>
</svg>
